<svg width="20" height="20" viewBox="0 0 20 20" fill="none" xmlns="http://www.w3.org/2000/svg">
<path d="M9.99984 1.66666C8.90549 1.66666 7.82185 1.8822 6.81081 2.30099C5.79976 2.71978 4.8811 3.33361 4.10728 4.10743C2.54448 5.67024 1.6665 7.78985 1.6665 9.99999C1.6665 12.2101 2.54448 14.3297 4.10728 15.8925C4.8811 16.6664 5.79976 17.2802 6.81081 17.699C7.82185 18.1178 8.90549 18.3333 9.99984 18.3333C12.21 18.3333 14.3296 17.4553 15.8924 15.8925C17.4552 14.3297 18.3332 12.2101 18.3332 9.99999C18.3332 8.90564 18.1176 7.82201 17.6988 6.81096C17.28 5.79991 16.6662 4.88125 15.8924 4.10743C15.1186 3.33361 14.1999 2.71978 13.1889 2.30099C12.1778 1.8822 11.0942 1.66666 9.99984 1.66666Z" fill="white"/>
</svg>
