<svg width="51" height="51" viewBox="0 0 51 51" fill="none" xmlns="http://www.w3.org/2000/svg">
<path d="M40.4661 6.85791H11.2994C8.98692 6.85791 7.13275 8.71208 7.13275 11.0246V19.3579H11.2994V11.0246H40.4661V40.1912H11.2994V31.8579H7.13275V40.1912C7.13275 41.2963 7.57174 42.3561 8.35314 43.1375C9.13454 43.9189 10.1943 44.3579 11.2994 44.3579H40.4661C41.5712 44.3579 42.631 43.9189 43.4124 43.1375C44.1938 42.3561 44.6328 41.2963 44.6328 40.1912V11.0246C44.6328 8.71208 42.7578 6.85791 40.4661 6.85791ZM21.8828 33.0662L24.8411 36.0246L35.2578 25.6079L24.8411 15.1912L21.8828 18.1287L27.2786 23.5246H7.13275V27.6912H27.2786L21.8828 33.0662Z" fill="white"/>
</svg>
